<?xml version="1.0" standalone="no"?><!DOCTYPE svg PUBLIC "-//W3C//DTD SVG 1.1//EN" "http://www.w3.org/Graphics/SVG/1.1/DTD/svg11.dtd"><svg t="1529948681048" class="icon" style="" viewBox="0 0 1024 1024" version="1.1" xmlns="http://www.w3.org/2000/svg" p-id="4846" xmlns:xlink="http://www.w3.org/1999/xlink" width="16" height="16"><defs><style type="text/css"></style></defs><path d="M874.666667 620.8c-12.8 0-21.333333 8.533333-21.333334 21.333333v200.533334c0 17.066667-14.933333 32-32 32h-618.666666c-17.066667 0-32-14.933333-32-32v-200.533334c0-12.8-8.533333-21.333333-21.333334-21.333333s-21.333333 8.533333-21.333333 21.333333v200.533334C128 883.2 162.133333 917.333333 202.666667 917.333333h618.666666c40.533333 0 74.666667-34.133333 74.666667-74.666666v-200.533334c0-12.8-8.533333-21.333333-21.333333-21.333333zM962.133333 362.666667c0-4.266667 0-8.533333-2.133333-12.8l-110.933333-209.066667c-2.133333-8.533333-10.666667-12.8-17.066667-12.8H172.8c-8.533333 0-17.066667 6.4-19.2 12.8l-87.466667 213.333333c-2.133333 4.266667-2.133333 6.4-2.133333 10.666667v72.533333C64 514.133333 128 576 204.8 576h40.533333c49.066667 0 91.733333-23.466667 117.333334-61.866667 25.6 36.266667 72.533333 61.866667 130.133333 61.866667h44.8c55.466667 0 102.4-25.6 128-66.133333 25.6 38.4 68.266667 64 117.333333 64h40.533334c76.8 0 138.666667-61.866667 138.666666-138.666667V362.666667zM187.733333 170.666667h631.466667l89.6 170.666666H117.333333l70.4-170.666666z m635.733334 360.533333h-40.533334c-53.333333 0-96-42.666667-96-96 0-12.8-8.533333-21.333333-21.333333-21.333333s-21.333333 8.533333-21.333333 21.333333v10.666667c0 46.933333-46.933333 87.466667-106.666667 87.466666h-44.8c-59.733333 0-106.666667-34.133333-106.666667-81.066666 0-2.133333 0-4.266667-2.133333-6.4v-2.133334c0-12.8-8.533333-21.333333-21.333333-21.333333s-21.333333 8.533333-21.333334 21.333333c0 51.2-42.666667 91.733333-96 91.733334H204.8C151.466667 533.333333 106.666667 490.666667 106.666667 437.333333V384h812.8v51.2c0 53.333333-42.666667 96-96 96z" fill="#a0a0a0" p-id="4847"></path></svg>