<?xml version="1.0" standalone="no"?><!DOCTYPE svg PUBLIC "-//W3C//DTD SVG 1.1//EN" "http://www.w3.org/Graphics/SVG/1.1/DTD/svg11.dtd"><svg t="1527932575259" class="icon" style="" viewBox="0 0 1024 1024" version="1.1" xmlns="http://www.w3.org/2000/svg" p-id="5404" xmlns:xlink="http://www.w3.org/1999/xlink" width="28" height="28"><defs><style type="text/css"></style></defs><path d="M512 64C265.6 64 64 262.4 64 512s201.6 448 448 448 448-201.6 448-448S758.4 64 512 64z m-96 592c0 25.6-22.4 48-48 48s-48-22.4-48-48v-188.8c0-25.6 22.4-48 48-48s48 22.4 48 48v188.8z m144 0c0 25.6-22.4 48-48 48s-48-22.4-48-48v-128c0-25.6 22.4-48 48-48s48 22.4 48 48v128z m144 3.2c0 25.6-22.4 48-48 48s-48-22.4-48-48v-256c0-25.6 22.4-48 48-48s48 22.4 48 48v256z" fill="#58b3e0" p-id="5405"></path></svg>