<?xml version="1.0" standalone="no"?><!DOCTYPE svg PUBLIC "-//W3C//DTD SVG 1.1//EN" "http://www.w3.org/Graphics/SVG/1.1/DTD/svg11.dtd"><svg t="1526893342815" class="icon" style="" viewBox="0 0 1024 1024" version="1.1" xmlns="http://www.w3.org/2000/svg" p-id="9054" xmlns:xlink="http://www.w3.org/1999/xlink" width="28" height="28"><defs><style type="text/css"></style></defs><path d="M306.784 450.976c-97.056 0-176-78.944-176-176s78.944-176 176-176 176 78.944 176 176S403.84 450.976 306.784 450.976zM306.784 162.976c-61.76 0-112 50.24-112 112s50.24 112 112 112 112-50.24 112-112S368.544 162.976 306.784 162.976z" p-id="9055" fill="#ff5757"></path><path d="M719.296 450.976c-97.024 0-176-78.944-176-176s78.976-176 176-176 176 78.944 176 176S816.32 450.976 719.296 450.976zM719.296 162.976c-61.76 0-112 50.24-112 112s50.24 112 112 112 112-50.24 112-112S781.024 162.976 719.296 162.976z" p-id="9056" fill="#ff5757"></path><path d="M303.584 901.28c-97.056 0-176-78.976-176-176s78.944-176 176-176 176 78.976 176 176S400.64 901.28 303.584 901.28zM303.584 613.28c-61.76 0-112 50.24-112 112s50.24 112 112 112 112-50.24 112-112S365.344 613.28 303.584 613.28z" p-id="9057" fill="#ff5757"></path><path d="M922.944 907.04l-65.856-68.576c26.528-31.36 41.376-71.072 41.376-113.184 0-97.024-78.976-176-176-176s-176 78.976-176 176c0 88.48 67.648 163.52 157.344 174.656 1.344 0.192 2.656 0.256 3.968 0.256 15.936 0 29.728-11.872 31.712-28.064 2.176-17.536-10.272-33.536-27.808-35.68-56.736-7.04-101.216-55.872-101.216-111.168 0-61.76 50.24-112 112-112s112 50.24 112 112c0 34.688-15.648 66.88-42.976 88.256-13.92 10.88-16.384 31.008-5.472 44.896 3.136 4 7.136 6.784 11.392 8.832 0.992 1.44 1.536 3.072 2.784 4.384l76.544 79.68c6.304 6.56 14.688 9.856 23.104 9.856 7.968 0 15.968-2.976 22.144-8.896C934.752 940.032 935.168 919.776 922.944 907.04z" p-id="9058" fill="#ff5757"></path></svg>