<?xml version="1.0" standalone="no"?><!DOCTYPE svg PUBLIC "-//W3C//DTD SVG 1.1//EN" "http://www.w3.org/Graphics/SVG/1.1/DTD/svg11.dtd"><svg t="1527686749731" class="icon" style="" viewBox="0 0 1024 1024" version="1.1" xmlns="http://www.w3.org/2000/svg" p-id="10967" xmlns:xlink="http://www.w3.org/1999/xlink" width="28" height="28"><defs><style type="text/css"></style></defs><path d="M515.2 64c-246.4 0-448 198.4-448 444.8S268.8 953.6 512 953.6c246.4 0 444.8-201.6 444.8-444.8C960 262.4 758.4 64 515.2 64z m208 396.8l-310.4 310.4c-3.2 3.2-9.6 6.4-12.8 6.4-3.2 0-6.4 0-9.6-3.2-6.4-3.2-9.6-12.8-6.4-22.4l64-176H307.2c-6.4 0-12.8-3.2-16-12.8s0-16 3.2-19.2l275.2-275.2c6.4-6.4 16-6.4 22.4-3.2 6.4 3.2 9.6 12.8 9.6 19.2l-32 140.8h140.8c6.4 0 12.8 3.2 16 12.8 3.2 9.6 0 19.2-3.2 22.4z" fill="#58b3e0" p-id="10968"></path></svg>