<?xml version="1.0" standalone="no"?><!DOCTYPE svg PUBLIC "-//W3C//DTD SVG 1.1//EN" "http://www.w3.org/Graphics/SVG/1.1/DTD/svg11.dtd"><svg t="1527686627216" class="icon" style="" viewBox="0 0 1024 1024" version="1.1" xmlns="http://www.w3.org/2000/svg" p-id="10339" data-spm-anchor-id="a313x.7781069.0.i4" xmlns:xlink="http://www.w3.org/1999/xlink" width="28" height="28"><defs><style type="text/css"></style></defs><path d="M515.2 67.2c-246.4 0-448 201.6-448 448s201.6 448 448 448 448-201.6 448-448-201.6-448-448-448z m214.4 425.6l-86.4 86.4 19.2 121.6c3.2 12.8-3.2 25.6-12.8 32-6.4 3.2-12.8 6.4-19.2 6.4-6.4 0-9.6 0-16-3.2L512 678.4 409.6 736c-9.6 6.4-22.4 6.4-35.2-3.2-9.6-6.4-16-19.2-12.8-32l19.2-121.6-83.2-86.4c-9.6-9.6-12.8-22.4-6.4-32 3.2-12.8 12.8-19.2 25.6-22.4l115.2-16 51.2-112c6.4-9.6 16-19.2 28.8-19.2s22.4 6.4 28.8 19.2l51.2 112 115.2 19.2c12.8 3.2 22.4 9.6 25.6 22.4 6.4 6.4 6.4 19.2-3.2 28.8z" fill="#ff917d" p-id="10340"></path></svg>