<?xml version="1.0" standalone="no"?><!DOCTYPE svg PUBLIC "-//W3C//DTD SVG 1.1//EN" "http://www.w3.org/Graphics/SVG/1.1/DTD/svg11.dtd"><svg t="1527686667465" class="icon" style="" viewBox="0 0 1024 1024" version="1.1" xmlns="http://www.w3.org/2000/svg" p-id="10564" xmlns:xlink="http://www.w3.org/1999/xlink" width="28" height="28"><defs><style type="text/css"></style></defs><path d="M515.2 67.2c-246.4 0-448 201.6-448 448s201.6 448 448 448 448-201.6 448-448-201.6-448-448-448zM704 691.2c0 25.6-22.4 48-48 48h-288c-25.6 0-48-22.4-48-48v-240c0-3.2 3.2-9.6 6.4-12.8s9.6-3.2 12.8-3.2l172.8 32 172.8-32c3.2 0 9.6 0 12.8 3.2 3.2 3.2 6.4 6.4 6.4 12.8v240z m0-304c0 6.4-6.4 12.8-12.8 16l-172.8 32h-3.2-3.2l-179.2-32c-6.4 0-12.8-9.6-12.8-16v-48c0-25.6 22.4-48 48-48h288c25.6 0 48 22.4 48 48v48z" fill="#f3b055" p-id="10565"></path><path d="M556.8 611.2h-32v-22.4h32c9.6 0 16-6.4 16-16s-6.4-16-16-16h-9.6l19.2-19.2c6.4-6.4 6.4-16 0-22.4-6.4-6.4-16-6.4-22.4 0l-32 35.2-32-35.2c-6.4-6.4-16-6.4-22.4 0s-6.4 16 0 22.4l16 19.2h-9.6c-9.6 0-16 6.4-16 16s6.4 16 16 16h32v22.4h-32c-9.6 0-16 6.4-16 16s6.4 16 16 16h32v25.6c0 9.6 6.4 16 16 16s16-6.4 16-16v-25.6h32c9.6 0 16-6.4 16-16s-9.6-16-19.2-16z" fill="#f3b055" p-id="10566"></path></svg>