<?xml version="1.0" standalone="no"?><!DOCTYPE svg PUBLIC "-//W3C//DTD SVG 1.1//EN" "http://www.w3.org/Graphics/SVG/1.1/DTD/svg11.dtd"><svg t="1527932549702" class="icon" style="" viewBox="0 0 1024 1024" version="1.1" xmlns="http://www.w3.org/2000/svg" p-id="5050" xmlns:xlink="http://www.w3.org/1999/xlink" width="28" height="28"><defs><style type="text/css"></style></defs><path d="M512 57.6c-246.4 0-448 201.6-448 448s201.6 448 448 448 448-201.6 448-448-201.6-448-448-448zM732.8 448l-9.6 230.4c0 6.4-3.2 9.6-6.4 12.8-3.2 0-60.8 38.4-198.4 38.4-137.6 0-198.4-35.2-198.4-38.4-3.2-3.2-6.4-6.4-6.4-12.8L294.4 448c-19.2-9.6-28.8-28.8-28.8-51.2 0-32 25.6-57.6 57.6-57.6s57.6 25.6 57.6 57.6c0 28.8-19.2 51.2-44.8 57.6 19.2 38.4 51.2 83.2 73.6 83.2 12.8 0 41.6-35.2 76.8-131.2-22.4-9.6-38.4-32-38.4-60.8 0-35.2 28.8-64 67.2-64s64 28.8 64 64c0 25.6-16 48-38.4 60.8 32 89.6 64 134.4 80 134.4s48-41.6 70.4-89.6c-25.6-6.4-44.8-28.8-44.8-57.6 0-32 25.6-57.6 57.6-57.6s57.6 25.6 57.6 57.6c0 25.6-12.8 44.8-28.8 54.4z" fill="#f3b055" p-id="5051"></path></svg>